<mxfile host="app.diagrams.net" modified="2024-02-02T12:36:10.148Z" agent="Mozilla/5.0 (Windows NT 10.0; Win64; x64) AppleWebKit/537.36 (KHTML, like Gecko) Chrome/121.0.0.0 Safari/537.36 Edg/121.0.0.0" etag="YiVvyNH2WJ10GREkzh6s" version="23.1.0" type="device">
  <diagram name="Page-1" id="86d96roCb1jrmFE0zWji">
    <mxGraphModel dx="1933" dy="772" grid="1" gridSize="10" guides="1" tooltips="1" connect="1" arrows="1" fold="1" page="1" pageScale="1" pageWidth="827" pageHeight="1169" math="0" shadow="0">
      <root>
        <mxCell id="0" />
        <mxCell id="1" parent="0" />
        <mxCell id="D524hmBdqflUKqVuQdt_-88" value="&lt;br&gt;&lt;br&gt;&lt;br&gt;&lt;br&gt;&lt;br&gt;&lt;br&gt;&lt;br&gt;&lt;br&gt;&lt;br&gt;&lt;br&gt;&lt;br&gt;&lt;br&gt;&lt;br&gt;&lt;br&gt;&lt;br&gt;&lt;br&gt;&lt;br&gt;&lt;br&gt;&lt;br&gt;&lt;br&gt;&lt;br&gt;&lt;br&gt;&lt;br&gt;&lt;br&gt;&lt;br&gt;10.10.50.0/29" style="rounded=1;whiteSpace=wrap;html=1;fillColor=#e1d5e7;strokeColor=#9673a6;" parent="1" vertex="1">
          <mxGeometry x="-550" width="470" height="400" as="geometry" />
        </mxCell>
        <mxCell id="D524hmBdqflUKqVuQdt_-32" value="" style="rounded=1;whiteSpace=wrap;html=1;fillColor=#d5e8d4;strokeColor=#82b366;" parent="1" vertex="1">
          <mxGeometry x="760" y="525" width="280" height="120" as="geometry" />
        </mxCell>
        <mxCell id="D524hmBdqflUKqVuQdt_-31" value="" style="rounded=1;whiteSpace=wrap;html=1;fillColor=#fff2cc;strokeColor=#d6b656;" parent="1" vertex="1">
          <mxGeometry x="-190" y="525" width="280" height="120" as="geometry" />
        </mxCell>
        <mxCell id="D524hmBdqflUKqVuQdt_-30" value="&amp;nbsp; &amp;nbsp; &amp;nbsp; &amp;nbsp; &amp;nbsp; &amp;nbsp; &amp;nbsp; &amp;nbsp; &amp;nbsp; &amp;nbsp; &amp;nbsp; &amp;nbsp; &amp;nbsp; &amp;nbsp; &amp;nbsp; &amp;nbsp; &amp;nbsp; &amp;nbsp; &amp;nbsp; &amp;nbsp;&lt;br&gt;&lt;br&gt;&lt;br&gt;&lt;br&gt;&lt;br&gt;&amp;nbsp; &amp;nbsp; &amp;nbsp; &amp;nbsp; &amp;nbsp; &amp;nbsp; &amp;nbsp; &amp;nbsp; &amp;nbsp; &amp;nbsp; &amp;nbsp; &amp;nbsp; &amp;nbsp; &amp;nbsp; &amp;nbsp; &amp;nbsp; &amp;nbsp; &amp;nbsp; &amp;nbsp; &amp;nbsp; &amp;nbsp; &amp;nbsp; &amp;nbsp; &amp;nbsp; &amp;nbsp; &amp;nbsp; &amp;nbsp; &amp;nbsp; &amp;nbsp; &amp;nbsp; &amp;nbsp; &amp;nbsp; &amp;nbsp; &amp;nbsp; &amp;nbsp; &amp;nbsp; &amp;nbsp;10.10.1.0/30" style="rounded=1;whiteSpace=wrap;html=1;fillColor=#dae8fc;strokeColor=#6c8ebf;" parent="1" vertex="1">
          <mxGeometry x="234" y="180" width="370" height="270" as="geometry" />
        </mxCell>
        <mxCell id="D524hmBdqflUKqVuQdt_-29" value="" style="rounded=1;whiteSpace=wrap;html=1;fillColor=#ffe6cc;strokeColor=#d79b00;" parent="1" vertex="1">
          <mxGeometry x="180" y="840" width="460" height="120" as="geometry" />
        </mxCell>
        <mxCell id="D524hmBdqflUKqVuQdt_-15" value="&lt;br&gt;&lt;br&gt;&lt;br&gt;&lt;br&gt;&lt;br&gt;&lt;br&gt;&lt;br&gt;&lt;br&gt;&lt;br&gt;&amp;nbsp; &amp;nbsp; &amp;nbsp; &amp;nbsp; &amp;nbsp; &amp;nbsp; &amp;nbsp; &amp;nbsp; &amp;nbsp; &amp;nbsp; &amp;nbsp; &amp;nbsp; &amp;nbsp; &amp;nbsp;10.10.10.0/28" style="ellipse;whiteSpace=wrap;html=1;fillColor=#f5f5f5;fontColor=#333333;strokeColor=#666666;" parent="1" vertex="1">
          <mxGeometry x="274" y="459.5" width="280" height="250" as="geometry" />
        </mxCell>
        <mxCell id="D524hmBdqflUKqVuQdt_-1" value="" style="fontColor=#0066CC;verticalAlign=top;verticalLabelPosition=bottom;labelPosition=center;align=center;html=1;outlineConnect=0;fillColor=#CCCCCC;strokeColor=#6881B3;gradientColor=none;gradientDirection=north;strokeWidth=2;shape=mxgraph.networks.switch;" parent="1" vertex="1">
          <mxGeometry x="364" y="570" width="100" height="30" as="geometry" />
        </mxCell>
        <mxCell id="D524hmBdqflUKqVuQdt_-6" style="edgeStyle=orthogonalEdgeStyle;rounded=0;orthogonalLoop=1;jettySize=auto;html=1;" parent="1" source="D524hmBdqflUKqVuQdt_-2" target="D524hmBdqflUKqVuQdt_-1" edge="1">
          <mxGeometry relative="1" as="geometry" />
        </mxCell>
        <mxCell id="D524hmBdqflUKqVuQdt_-2" value="" style="fontColor=#0066CC;verticalAlign=top;verticalLabelPosition=bottom;labelPosition=center;align=center;html=1;outlineConnect=0;fillColor=#CCCCCC;strokeColor=#6881B3;gradientColor=none;gradientDirection=north;strokeWidth=2;shape=mxgraph.networks.router;" parent="1" vertex="1">
          <mxGeometry x="140" y="570" width="100" height="30" as="geometry" />
        </mxCell>
        <mxCell id="D524hmBdqflUKqVuQdt_-8" style="edgeStyle=orthogonalEdgeStyle;rounded=0;orthogonalLoop=1;jettySize=auto;html=1;" parent="1" source="D524hmBdqflUKqVuQdt_-3" edge="1">
          <mxGeometry relative="1" as="geometry">
            <mxPoint x="470" y="585" as="targetPoint" />
          </mxGeometry>
        </mxCell>
        <mxCell id="D524hmBdqflUKqVuQdt_-3" value="" style="fontColor=#0066CC;verticalAlign=top;verticalLabelPosition=bottom;labelPosition=center;align=center;html=1;outlineConnect=0;fillColor=#CCCCCC;strokeColor=#6881B3;gradientColor=none;gradientDirection=north;strokeWidth=2;shape=mxgraph.networks.router;" parent="1" vertex="1">
          <mxGeometry x="600" y="570" width="100" height="30" as="geometry" />
        </mxCell>
        <mxCell id="D524hmBdqflUKqVuQdt_-7" style="edgeStyle=orthogonalEdgeStyle;rounded=0;orthogonalLoop=1;jettySize=auto;html=1;" parent="1" source="D524hmBdqflUKqVuQdt_-4" target="D524hmBdqflUKqVuQdt_-1" edge="1">
          <mxGeometry relative="1" as="geometry" />
        </mxCell>
        <mxCell id="D524hmBdqflUKqVuQdt_-4" value="" style="fontColor=#0066CC;verticalAlign=top;verticalLabelPosition=bottom;labelPosition=center;align=center;html=1;outlineConnect=0;fillColor=#CCCCCC;strokeColor=#6881B3;gradientColor=none;gradientDirection=north;strokeWidth=2;shape=mxgraph.networks.router;" parent="1" vertex="1">
          <mxGeometry x="364" y="410" width="100" height="30" as="geometry" />
        </mxCell>
        <mxCell id="D524hmBdqflUKqVuQdt_-5" value="" style="fontColor=#0066CC;verticalAlign=top;verticalLabelPosition=bottom;labelPosition=center;align=center;html=1;outlineConnect=0;fillColor=#CCCCCC;strokeColor=#6881B3;gradientColor=none;gradientDirection=north;strokeWidth=2;shape=mxgraph.networks.router;" parent="1" vertex="1">
          <mxGeometry x="364" y="730" width="100" height="30" as="geometry" />
        </mxCell>
        <mxCell id="D524hmBdqflUKqVuQdt_-9" style="edgeStyle=orthogonalEdgeStyle;rounded=0;orthogonalLoop=1;jettySize=auto;html=1;entryX=0.5;entryY=1;entryDx=0;entryDy=0;entryPerimeter=0;" parent="1" source="D524hmBdqflUKqVuQdt_-5" target="D524hmBdqflUKqVuQdt_-1" edge="1">
          <mxGeometry relative="1" as="geometry" />
        </mxCell>
        <mxCell id="D524hmBdqflUKqVuQdt_-10" value="&lt;h1&gt;RTR-CSC-IT-001&lt;/h1&gt;&lt;p&gt;&lt;br&gt;&lt;/p&gt;&lt;p&gt;&lt;span style=&quot;background-color: initial;&quot;&gt;IP-g/&lt;/span&gt;&lt;span style=&quot;background-color: initial;&quot;&gt;0/0/0: 10.10.10.40&lt;br&gt;&lt;/span&gt;&lt;span style=&quot;background-color: initial;&quot;&gt;IP-ET1: 10.10.40.1&lt;br&gt;&lt;/span&gt;&lt;span style=&quot;background-color: initial;&quot;&gt;HOST: RTR-CSC-IT-001&lt;/span&gt;&lt;/p&gt;" style="text;html=1;strokeColor=none;fillColor=none;spacing=5;spacingTop=-20;whiteSpace=wrap;overflow=hidden;rounded=0;" parent="1" vertex="1">
          <mxGeometry x="140" y="525" width="200" height="155" as="geometry" />
        </mxCell>
        <mxCell id="D524hmBdqflUKqVuQdt_-11" value="&lt;h1&gt;CRTR-CSC-GAB-001&lt;/h1&gt;&lt;p&gt;IP-g0/0/0: 10.10.10.10&lt;br&gt;IP-g0/1/0: 10.10.1.1&lt;br&gt;HOST: CRTR-CSC-GAB-001&lt;/p&gt;" style="text;html=1;strokeColor=none;fillColor=none;spacing=5;spacingTop=-20;whiteSpace=wrap;overflow=hidden;rounded=0;" parent="1" vertex="1">
          <mxGeometry x="200" y="330" width="310" height="120" as="geometry" />
        </mxCell>
        <mxCell id="D524hmBdqflUKqVuQdt_-12" value="&lt;h1 style=&quot;&quot;&gt;RTR-CSC-HR-001&lt;/h1&gt;&lt;p&gt;&lt;br&gt;&lt;/p&gt;&lt;p style=&quot;&quot;&gt;IP-g0/0/0:&lt;span style=&quot;background-color: initial;&quot;&gt;&amp;nbsp;10.10.10.20&lt;br&gt;IP-ET1: 10.10.20.1&lt;br&gt;&lt;/span&gt;&lt;span style=&quot;background-color: initial;&quot;&gt;HOST: RTR-CSC-HR-001&lt;/span&gt;&lt;/p&gt;&lt;p&gt;&lt;/p&gt;" style="text;html=1;strokeColor=none;fillColor=none;spacing=5;spacingTop=-20;whiteSpace=wrap;overflow=hidden;rounded=0;align=left;" parent="1" vertex="1">
          <mxGeometry x="600" y="530" width="230" height="150" as="geometry" />
        </mxCell>
        <mxCell id="D524hmBdqflUKqVuQdt_-14" value="&lt;h1&gt;RTR-CSC-ORG-001&lt;/h1&gt;&lt;p&gt;IP-g0/0/0: 10.10.10.30&lt;br&gt;&lt;span style=&quot;background-color: initial;&quot;&gt;IP-ET1: 10.10.30.1&lt;br&gt;&lt;/span&gt;&lt;span style=&quot;background-color: initial;&quot;&gt;HOST: RTR-CSC-ORG-001&lt;/span&gt;&lt;/p&gt;" style="text;html=1;strokeColor=none;fillColor=none;spacing=5;spacingTop=-20;whiteSpace=wrap;overflow=hidden;rounded=0;" parent="1" vertex="1">
          <mxGeometry x="470" y="720" width="230" height="120" as="geometry" />
        </mxCell>
        <mxCell id="D524hmBdqflUKqVuQdt_-19" value="" style="fontColor=#0066CC;verticalAlign=top;verticalLabelPosition=bottom;labelPosition=center;align=center;html=1;outlineConnect=0;fillColor=#CCCCCC;strokeColor=#6881B3;gradientColor=none;gradientDirection=north;strokeWidth=2;shape=mxgraph.networks.switch;" parent="1" vertex="1">
          <mxGeometry x="-100" y="570" width="100" height="30" as="geometry" />
        </mxCell>
        <mxCell id="D524hmBdqflUKqVuQdt_-20" value="" style="fontColor=#0066CC;verticalAlign=top;verticalLabelPosition=bottom;labelPosition=center;align=center;html=1;outlineConnect=0;fillColor=#CCCCCC;strokeColor=#6881B3;gradientColor=none;gradientDirection=north;strokeWidth=2;shape=mxgraph.networks.switch;" parent="1" vertex="1">
          <mxGeometry x="364" y="880" width="100" height="30" as="geometry" />
        </mxCell>
        <mxCell id="D524hmBdqflUKqVuQdt_-22" value="" style="fontColor=#0066CC;verticalAlign=top;verticalLabelPosition=bottom;labelPosition=center;align=center;html=1;outlineConnect=0;fillColor=#CCCCCC;strokeColor=#6881B3;gradientColor=none;gradientDirection=north;strokeWidth=2;shape=mxgraph.networks.switch;" parent="1" vertex="1">
          <mxGeometry x="850" y="569.5" width="100" height="30" as="geometry" />
        </mxCell>
        <mxCell id="D524hmBdqflUKqVuQdt_-24" style="edgeStyle=orthogonalEdgeStyle;rounded=0;orthogonalLoop=1;jettySize=auto;html=1;entryX=0;entryY=0.5;entryDx=0;entryDy=0;entryPerimeter=0;" parent="1" source="D524hmBdqflUKqVuQdt_-19" target="D524hmBdqflUKqVuQdt_-2" edge="1">
          <mxGeometry relative="1" as="geometry" />
        </mxCell>
        <mxCell id="D524hmBdqflUKqVuQdt_-26" style="edgeStyle=orthogonalEdgeStyle;rounded=0;orthogonalLoop=1;jettySize=auto;html=1;entryX=0.5;entryY=1;entryDx=0;entryDy=0;entryPerimeter=0;" parent="1" source="D524hmBdqflUKqVuQdt_-20" target="D524hmBdqflUKqVuQdt_-5" edge="1">
          <mxGeometry relative="1" as="geometry" />
        </mxCell>
        <mxCell id="D524hmBdqflUKqVuQdt_-27" style="edgeStyle=orthogonalEdgeStyle;rounded=0;orthogonalLoop=1;jettySize=auto;html=1;entryX=1;entryY=0.5;entryDx=0;entryDy=0;entryPerimeter=0;" parent="1" source="D524hmBdqflUKqVuQdt_-22" target="D524hmBdqflUKqVuQdt_-3" edge="1">
          <mxGeometry relative="1" as="geometry" />
        </mxCell>
        <mxCell id="D524hmBdqflUKqVuQdt_-33" value="10.10.40.0/24" style="text;html=1;strokeColor=none;fillColor=none;align=center;verticalAlign=middle;whiteSpace=wrap;rounded=0;" parent="1" vertex="1">
          <mxGeometry x="-80" y="610" width="60" height="30" as="geometry" />
        </mxCell>
        <mxCell id="D524hmBdqflUKqVuQdt_-34" value="ET1" style="text;html=1;strokeColor=none;fillColor=none;align=center;verticalAlign=middle;whiteSpace=wrap;rounded=0;" parent="1" vertex="1">
          <mxGeometry x="90" y="560" width="60" height="30" as="geometry" />
        </mxCell>
        <mxCell id="D524hmBdqflUKqVuQdt_-37" value="g0/0/0" style="text;html=1;strokeColor=none;fillColor=none;align=center;verticalAlign=middle;whiteSpace=wrap;rounded=0;" parent="1" vertex="1">
          <mxGeometry x="230" y="560" width="60" height="30" as="geometry" />
        </mxCell>
        <mxCell id="D524hmBdqflUKqVuQdt_-38" value="g0/0/0" style="text;html=1;strokeColor=none;fillColor=none;align=center;verticalAlign=middle;whiteSpace=wrap;rounded=0;" parent="1" vertex="1">
          <mxGeometry x="364" y="700" width="60" height="30" as="geometry" />
        </mxCell>
        <mxCell id="D524hmBdqflUKqVuQdt_-39" value="ET1" style="text;html=1;strokeColor=none;fillColor=none;align=center;verticalAlign=middle;whiteSpace=wrap;rounded=0;" parent="1" vertex="1">
          <mxGeometry x="364" y="765" width="60" height="30" as="geometry" />
        </mxCell>
        <mxCell id="D524hmBdqflUKqVuQdt_-41" value="g0/0/0" style="text;html=1;strokeColor=none;fillColor=none;align=center;verticalAlign=middle;whiteSpace=wrap;rounded=0;" parent="1" vertex="1">
          <mxGeometry x="540" y="560" width="60" height="30" as="geometry" />
        </mxCell>
        <mxCell id="D524hmBdqflUKqVuQdt_-42" value="ET1" style="text;html=1;strokeColor=none;fillColor=none;align=center;verticalAlign=middle;whiteSpace=wrap;rounded=0;" parent="1" vertex="1">
          <mxGeometry x="700" y="560" width="60" height="30" as="geometry" />
        </mxCell>
        <mxCell id="D524hmBdqflUKqVuQdt_-43" value="g0/0/0" style="text;html=1;strokeColor=none;fillColor=none;align=center;verticalAlign=middle;whiteSpace=wrap;rounded=0;" parent="1" vertex="1">
          <mxGeometry x="354" y="440" width="60" height="30" as="geometry" />
        </mxCell>
        <mxCell id="D524hmBdqflUKqVuQdt_-46" value="g0/1/0" style="text;html=1;strokeColor=none;fillColor=none;align=center;verticalAlign=middle;whiteSpace=wrap;rounded=0;" parent="1" vertex="1">
          <mxGeometry x="364" y="380" width="60" height="30" as="geometry" />
        </mxCell>
        <mxCell id="D524hmBdqflUKqVuQdt_-48" value="10.10.30.0/24" style="text;html=1;strokeColor=none;fillColor=none;align=center;verticalAlign=middle;whiteSpace=wrap;rounded=0;" parent="1" vertex="1">
          <mxGeometry x="383" y="930" width="60" height="30" as="geometry" />
        </mxCell>
        <mxCell id="D524hmBdqflUKqVuQdt_-49" value="" style="fontColor=#0066CC;verticalAlign=top;verticalLabelPosition=bottom;labelPosition=center;align=center;html=1;outlineConnect=0;fillColor=#CCCCCC;strokeColor=#6881B3;gradientColor=none;gradientDirection=north;strokeWidth=2;shape=mxgraph.networks.printer;" parent="1" vertex="1">
          <mxGeometry x="-330" y="640" width="80" height="80" as="geometry" />
        </mxCell>
        <mxCell id="D524hmBdqflUKqVuQdt_-72" style="edgeStyle=orthogonalEdgeStyle;rounded=0;orthogonalLoop=1;jettySize=auto;html=1;" parent="1" source="D524hmBdqflUKqVuQdt_-50" target="D524hmBdqflUKqVuQdt_-19" edge="1">
          <mxGeometry relative="1" as="geometry" />
        </mxCell>
        <mxCell id="D524hmBdqflUKqVuQdt_-50" value="" style="fontColor=#0066CC;verticalAlign=top;verticalLabelPosition=bottom;labelPosition=center;align=center;html=1;outlineConnect=0;fillColor=#CCCCCC;strokeColor=#6881B3;gradientColor=none;gradientDirection=north;strokeWidth=2;shape=mxgraph.networks.pc;" parent="1" vertex="1">
          <mxGeometry x="-340" y="550" width="100" height="70" as="geometry" />
        </mxCell>
        <mxCell id="D524hmBdqflUKqVuQdt_-73" style="edgeStyle=orthogonalEdgeStyle;rounded=0;orthogonalLoop=1;jettySize=auto;html=1;" parent="1" source="D524hmBdqflUKqVuQdt_-51" target="D524hmBdqflUKqVuQdt_-19" edge="1">
          <mxGeometry relative="1" as="geometry" />
        </mxCell>
        <mxCell id="D524hmBdqflUKqVuQdt_-51" value="" style="fontColor=#0066CC;verticalAlign=top;verticalLabelPosition=bottom;labelPosition=center;align=center;html=1;outlineConnect=0;fillColor=#CCCCCC;strokeColor=#6881B3;gradientColor=none;gradientDirection=north;strokeWidth=2;shape=mxgraph.networks.pc;" parent="1" vertex="1">
          <mxGeometry x="-340" y="460" width="100" height="70" as="geometry" />
        </mxCell>
        <mxCell id="D524hmBdqflUKqVuQdt_-52" value="" style="fontColor=#0066CC;verticalAlign=top;verticalLabelPosition=bottom;labelPosition=center;align=center;html=1;outlineConnect=0;fillColor=#CCCCCC;strokeColor=#6881B3;gradientColor=none;gradientDirection=north;strokeWidth=2;shape=mxgraph.networks.router;" parent="1" vertex="1">
          <mxGeometry x="-60" y="325" width="100" height="30" as="geometry" />
        </mxCell>
        <mxCell id="D524hmBdqflUKqVuQdt_-53" value="" style="endArrow=classic;html=1;rounded=0;entryX=0.05;entryY=0.05;entryDx=0;entryDy=0;entryPerimeter=0;" parent="1" source="D524hmBdqflUKqVuQdt_-52" target="D524hmBdqflUKqVuQdt_-1" edge="1">
          <mxGeometry width="50" height="50" relative="1" as="geometry">
            <mxPoint x="170" y="460" as="sourcePoint" />
            <mxPoint x="220" y="410" as="targetPoint" />
          </mxGeometry>
        </mxCell>
        <mxCell id="D524hmBdqflUKqVuQdt_-54" value="&lt;h1&gt;RTR-CSC-ADM-001&lt;/h1&gt;&lt;p&gt;&lt;br&gt;&lt;/p&gt;&lt;p&gt;IP-g0/0/0: 10.10.10.50&lt;br&gt;IP-ET1: 10.10.50.1&lt;br&gt;HOST: RTR-CSC-ADM-001&lt;/p&gt;" style="text;html=1;strokeColor=none;fillColor=none;spacing=5;spacingTop=-20;whiteSpace=wrap;overflow=hidden;rounded=0;" parent="1" vertex="1">
          <mxGeometry x="-60" y="290" width="240" height="140" as="geometry" />
        </mxCell>
        <mxCell id="D524hmBdqflUKqVuQdt_-55" value="g0/0/0" style="text;html=1;strokeColor=none;fillColor=none;align=center;verticalAlign=middle;whiteSpace=wrap;rounded=0;" parent="1" vertex="1">
          <mxGeometry x="30" y="335" width="60" height="30" as="geometry" />
        </mxCell>
        <mxCell id="D524hmBdqflUKqVuQdt_-70" style="edgeStyle=orthogonalEdgeStyle;rounded=0;orthogonalLoop=1;jettySize=auto;html=1;" parent="1" source="D524hmBdqflUKqVuQdt_-58" edge="1">
          <mxGeometry relative="1" as="geometry">
            <mxPoint x="-60" y="340" as="targetPoint" />
            <Array as="points">
              <mxPoint x="-285" y="250" />
              <mxPoint x="-160" y="250" />
              <mxPoint x="-160" y="340" />
            </Array>
          </mxGeometry>
        </mxCell>
        <mxCell id="D524hmBdqflUKqVuQdt_-58" value="" style="fontColor=#0066CC;verticalAlign=top;verticalLabelPosition=bottom;labelPosition=center;align=center;html=1;outlineConnect=0;fillColor=#CCCCCC;strokeColor=#6881B3;gradientColor=none;gradientDirection=north;strokeWidth=2;shape=mxgraph.networks.server;" parent="1" vertex="1">
          <mxGeometry x="-330" y="140" width="90" height="100" as="geometry" />
        </mxCell>
        <mxCell id="D524hmBdqflUKqVuQdt_-68" style="edgeStyle=orthogonalEdgeStyle;rounded=0;orthogonalLoop=1;jettySize=auto;html=1;entryX=0;entryY=0.5;entryDx=0;entryDy=0;entryPerimeter=0;" parent="1" source="D524hmBdqflUKqVuQdt_-59" target="D524hmBdqflUKqVuQdt_-52" edge="1">
          <mxGeometry relative="1" as="geometry">
            <mxPoint x="-80" y="350" as="targetPoint" />
            <Array as="points">
              <mxPoint x="-160" y="340" />
            </Array>
          </mxGeometry>
        </mxCell>
        <mxCell id="D524hmBdqflUKqVuQdt_-59" value="" style="fontColor=#0066CC;verticalAlign=top;verticalLabelPosition=bottom;labelPosition=center;align=center;html=1;outlineConnect=0;fillColor=#CCCCCC;strokeColor=#6881B3;gradientColor=none;gradientDirection=north;strokeWidth=2;shape=mxgraph.networks.server;" parent="1" vertex="1">
          <mxGeometry x="-200" y="140" width="90" height="100" as="geometry" />
        </mxCell>
        <mxCell id="D524hmBdqflUKqVuQdt_-60" value="" style="fontColor=#0066CC;verticalAlign=top;verticalLabelPosition=bottom;labelPosition=center;align=center;html=1;outlineConnect=0;fillColor=#CCCCCC;strokeColor=#6881B3;gradientColor=none;gradientDirection=north;strokeWidth=2;shape=mxgraph.networks.ups_enterprise;" parent="1" vertex="1">
          <mxGeometry x="-510" y="140" width="100" height="100" as="geometry" />
        </mxCell>
        <mxCell id="D524hmBdqflUKqVuQdt_-61" style="edgeStyle=orthogonalEdgeStyle;rounded=0;orthogonalLoop=1;jettySize=auto;html=1;entryX=0;entryY=0.5;entryDx=0;entryDy=0;entryPerimeter=0;" parent="1" source="D524hmBdqflUKqVuQdt_-60" target="D524hmBdqflUKqVuQdt_-58" edge="1">
          <mxGeometry relative="1" as="geometry" />
        </mxCell>
        <mxCell id="D524hmBdqflUKqVuQdt_-63" value="" style="fontColor=#0066CC;verticalAlign=top;verticalLabelPosition=bottom;labelPosition=center;align=center;html=1;outlineConnect=0;fillColor=#CCCCCC;strokeColor=#6881B3;gradientColor=none;gradientDirection=north;strokeWidth=2;shape=mxgraph.networks.ups_enterprise;" parent="1" vertex="1">
          <mxGeometry x="-510" y="20" width="100" height="100" as="geometry" />
        </mxCell>
        <mxCell id="D524hmBdqflUKqVuQdt_-64" style="edgeStyle=orthogonalEdgeStyle;rounded=0;orthogonalLoop=1;jettySize=auto;html=1;entryX=0.5;entryY=0;entryDx=0;entryDy=0;entryPerimeter=0;" parent="1" source="D524hmBdqflUKqVuQdt_-63" target="D524hmBdqflUKqVuQdt_-59" edge="1">
          <mxGeometry relative="1" as="geometry" />
        </mxCell>
        <mxCell id="D524hmBdqflUKqVuQdt_-71" value="ET1" style="text;html=1;strokeColor=none;fillColor=none;align=center;verticalAlign=middle;whiteSpace=wrap;rounded=0;" parent="1" vertex="1">
          <mxGeometry x="-120" y="310" width="60" height="30" as="geometry" />
        </mxCell>
        <mxCell id="D524hmBdqflUKqVuQdt_-74" style="edgeStyle=orthogonalEdgeStyle;rounded=0;orthogonalLoop=1;jettySize=auto;html=1;entryX=0.5;entryY=1;entryDx=0;entryDy=0;entryPerimeter=0;" parent="1" source="D524hmBdqflUKqVuQdt_-49" target="D524hmBdqflUKqVuQdt_-19" edge="1">
          <mxGeometry relative="1" as="geometry" />
        </mxCell>
        <mxCell id="D524hmBdqflUKqVuQdt_-75" value="SAME AS 10.10.40.0/24" style="text;html=1;strokeColor=none;fillColor=none;align=center;verticalAlign=middle;whiteSpace=wrap;rounded=0;" parent="1" vertex="1">
          <mxGeometry x="383" y="990" width="60" height="30" as="geometry" />
        </mxCell>
        <mxCell id="D524hmBdqflUKqVuQdt_-76" value="SAME AS 10.10.40.0/24" style="text;html=1;strokeColor=none;fillColor=none;align=center;verticalAlign=middle;whiteSpace=wrap;rounded=0;" parent="1" vertex="1">
          <mxGeometry x="1060" y="570" width="60" height="30" as="geometry" />
        </mxCell>
        <mxCell id="l1RTpPDO6MsHn3t7dzeh-22" style="edgeStyle=orthogonalEdgeStyle;rounded=0;orthogonalLoop=1;jettySize=auto;html=1;" parent="1" source="D524hmBdqflUKqVuQdt_-82" target="D524hmBdqflUKqVuQdt_-4" edge="1">
          <mxGeometry relative="1" as="geometry" />
        </mxCell>
        <mxCell id="D524hmBdqflUKqVuQdt_-82" value="" style="fontColor=#0066CC;verticalAlign=top;verticalLabelPosition=bottom;labelPosition=center;align=center;html=1;outlineConnect=0;fillColor=#CCCCCC;strokeColor=#6881B3;gradientColor=none;gradientDirection=north;strokeWidth=2;shape=mxgraph.networks.router;" parent="1" vertex="1">
          <mxGeometry x="364" y="230" width="100" height="30" as="geometry" />
        </mxCell>
        <mxCell id="D524hmBdqflUKqVuQdt_-84" value="&lt;h1&gt;CH-RKON-NTST-001&lt;/h1&gt;&lt;p&gt;&lt;b&gt;IP: 10.10.50.2&lt;/b&gt;&lt;/p&gt;" style="text;html=1;strokeColor=none;fillColor=none;spacing=5;spacingTop=-20;whiteSpace=wrap;overflow=hidden;rounded=0;" parent="1" vertex="1">
          <mxGeometry x="-760" y="10" width="250" height="120" as="geometry" />
        </mxCell>
        <mxCell id="D524hmBdqflUKqVuQdt_-87" value="&lt;h1 style=&quot;border-color: var(--border-color);&quot;&gt;CH-RKON-WEBS-001&lt;/h1&gt;&lt;p&gt;&lt;b&gt;IP: 10.10.50.3&lt;/b&gt;&lt;/p&gt;" style="text;html=1;strokeColor=none;fillColor=none;spacing=5;spacingTop=-20;whiteSpace=wrap;overflow=hidden;rounded=0;" parent="1" vertex="1">
          <mxGeometry x="-760" y="130" width="260" height="120" as="geometry" />
        </mxCell>
        <mxCell id="D524hmBdqflUKqVuQdt_-89" value="ET0" style="text;html=1;strokeColor=none;fillColor=none;align=center;verticalAlign=middle;whiteSpace=wrap;rounded=0;" parent="1" vertex="1">
          <mxGeometry x="410" y="260" width="60" height="30" as="geometry" />
        </mxCell>
        <mxCell id="l1RTpPDO6MsHn3t7dzeh-1" value="g0/1" style="text;html=1;strokeColor=none;fillColor=none;align=center;verticalAlign=middle;whiteSpace=wrap;rounded=0;" parent="1" vertex="1">
          <mxGeometry x="404" y="530" width="60" height="30" as="geometry" />
        </mxCell>
        <mxCell id="l1RTpPDO6MsHn3t7dzeh-2" value="g1/1" style="text;html=1;strokeColor=none;fillColor=none;align=center;verticalAlign=middle;whiteSpace=wrap;rounded=0;" parent="1" vertex="1">
          <mxGeometry x="464" y="560" width="60" height="30" as="geometry" />
        </mxCell>
        <mxCell id="l1RTpPDO6MsHn3t7dzeh-3" value="g2/1" style="text;html=1;strokeColor=none;fillColor=none;align=center;verticalAlign=middle;whiteSpace=wrap;rounded=0;" parent="1" vertex="1">
          <mxGeometry x="404" y="599.5" width="60" height="30" as="geometry" />
        </mxCell>
        <mxCell id="l1RTpPDO6MsHn3t7dzeh-4" value="g3/1" style="text;html=1;strokeColor=none;fillColor=none;align=center;verticalAlign=middle;whiteSpace=wrap;rounded=0;" parent="1" vertex="1">
          <mxGeometry x="320" y="585" width="60" height="30" as="geometry" />
        </mxCell>
        <mxCell id="l1RTpPDO6MsHn3t7dzeh-5" value="g4/1" style="text;html=1;strokeColor=none;fillColor=none;align=center;verticalAlign=middle;whiteSpace=wrap;rounded=0;" parent="1" vertex="1">
          <mxGeometry x="340" y="540" width="60" height="30" as="geometry" />
        </mxCell>
        <mxCell id="l1RTpPDO6MsHn3t7dzeh-23" value="&lt;h1&gt;RTR-FBR-SWSCOM-001&lt;/h1&gt;&lt;p&gt;IP ET0: 10.10.1.2&lt;br&gt;IP ET1:&amp;nbsp;15.2.1.9&lt;br&gt;HOST: RTR-FBR-SWSCOM-001&lt;/p&gt;" style="text;html=1;strokeColor=none;fillColor=none;spacing=5;spacingTop=-20;whiteSpace=wrap;overflow=hidden;rounded=0;" parent="1" vertex="1">
          <mxGeometry x="464" y="185" width="296" height="120" as="geometry" />
        </mxCell>
        <mxCell id="6im_Z2StXAivOVi90y2p-1" value="&lt;b&gt;&lt;font style=&quot;font-size: 30px;&quot;&gt;WAN&lt;/font&gt;&lt;/b&gt;" style="rounded=1;whiteSpace=wrap;html=1;fillColor=#F8CECC;strokeColor=#b85450;" parent="1" vertex="1">
          <mxGeometry x="234" y="30" width="366" height="130" as="geometry" />
        </mxCell>
      </root>
    </mxGraphModel>
  </diagram>
</mxfile>
